<svg width="24" height="25" viewBox="0 0 24 25" fill="none" xmlns="http://www.w3.org/2000/svg">
<path fill-rule="evenodd" clip-rule="evenodd" d="M13.1389 0.365517C12.4421 -0.12184 11.558 -0.121838 10.8612 0.365518L1.01373 7.25331C-0.816949 8.53377 -0.00625775 11.6972 2.15256 11.6972H21.8475C24.0063 11.6972 24.817 8.53377 22.9864 7.25331L13.1389 0.365517ZM11.685 1.84067C11.8778 1.70586 12.1223 1.70586 12.315 1.84067L22.1625 8.72846C22.6689 9.08262 22.4446 9.95763 21.8475 9.95763H2.15256C1.55544 9.95763 1.33121 9.08262 1.83757 8.72846L11.685 1.84067ZM1.02818 23.2605C0.598945 23.2605 0.250978 23.6498 0.250977 24.1303C0.250977 24.6106 0.598944 25.0001 1.02818 25.0001H22.9728C23.4021 25.0001 23.75 24.6106 23.75 24.1303C23.75 23.6499 23.4021 23.2605 22.9728 23.2605H1.02818Z" fill="currentColor"/>
<path fill-rule="evenodd" clip-rule="evenodd" d="M3.90723 22.0835V12.874H5.46164V22.0835H3.90723ZM7.56445 22.0835V12.874H9.11886V22.0835H7.56445ZM11.2227 12.874V22.0835H12.7771V12.874H11.2227ZM14.8799 22.0835V12.874H16.4343V22.0835H14.8799ZM18.5371 12.874V22.0835H20.0915V12.874H18.5371Z" fill="#EA515E"/>
</svg>
