<svg width="16" height="16" viewBox="0 0 16 16" fill="none" xmlns="http://www.w3.org/2000/svg">
<path d="M4.7606 15.8021C3.85954 15.8043 2.97814 15.5389 2.22814 15.0397C1.47814 14.5405 0.893302 13.8299 0.547775 12.998C0.202248 12.1661 0.111591 11.2504 0.287295 10.3669C0.462999 9.48349 0.897152 8.67208 1.53472 8.03559L8.42457 1.1579C9.03438 0.54692 9.86202 0.203125 10.7254 0.202151C11.5888 0.201176 12.4172 0.5431 13.0284 1.1527C13.6396 1.76231 13.9835 2.58966 13.9845 3.45274C13.9855 4.31583 13.6434 5.14395 13.0336 5.75494L6.14312 12.632C5.77045 12.987 5.2754 13.1851 4.7606 13.1851C4.24579 13.1851 3.75074 12.987 3.37808 12.632C3.19678 12.4509 3.05295 12.236 2.95482 11.9993C2.85669 11.7627 2.80618 11.509 2.80618 11.2529C2.80618 10.9967 2.85669 10.743 2.95482 10.5064C3.05295 10.2698 3.19678 10.0548 3.37808 9.87375L9.80904 3.45674L10.7307 4.37615L4.29976 10.7945C4.1779 10.9163 4.10945 11.0815 4.10945 11.2538C4.10945 11.4261 4.1779 11.5914 4.29976 11.7132C4.42393 11.8317 4.58896 11.8977 4.7606 11.8977C4.93223 11.8977 5.09727 11.8317 5.22144 11.7132L12.1165 4.83553C12.4824 4.46891 12.6876 3.972 12.687 3.45412C12.6864 2.93625 12.48 2.43982 12.1132 2.07406C11.7465 1.7083 11.2494 1.50316 10.7313 1.50377C10.2133 1.50438 9.71669 1.71069 9.35079 2.07731L2.4564 8.95434C1.84649 9.56524 1.50433 10.3933 1.50518 11.2564C1.50604 12.1195 1.84983 12.9469 2.46095 13.5566C3.07206 14.1663 3.90042 14.5083 4.76381 14.5075C5.6272 14.5066 6.45489 14.1629 7.0648 13.552L14.8783 5.75494L15.8 6.67434L7.98647 14.4714C7.56283 14.8945 7.0598 15.2299 6.50623 15.4582C5.95266 15.6866 5.35944 15.8035 4.7606 15.8021Z" fill="currentColor"/>
</svg>
