<svg width="15" height="15" viewBox="0 0 15 15" fill="none" xmlns="http://www.w3.org/2000/svg">
<g id="Group 11112772">
<path id="Vector" fill-rule="evenodd" clip-rule="evenodd" d="M0.294332 10.8645C-0.0917742 8.68521 -0.100014 6.42361 0.281467 4.24191L0.303017 4.11868C0.598341 2.42967 1.91504 1.10372 3.60193 0.796568C5.75272 0.404951 7.9557 0.395443 10.1098 0.768481L10.3108 0.803299C12.0481 1.10417 13.4101 2.46256 13.7157 4.19901C14.1 6.38311 14.1 8.61772 13.7156 10.8018C13.41 12.5376 12.0487 13.8955 10.312 14.1967L10.1154 14.2308C7.95762 14.605 5.75077 14.5954 3.59631 14.2026C1.90895 13.895 0.592305 12.5464 0.294332 10.8645ZM1.19803 4.40217C0.835479 6.4756 0.843047 8.62802 1.21053 10.7022C1.44191 12.0082 2.46545 13.0506 3.7632 13.2872C5.80998 13.6604 7.9065 13.6695 9.95645 13.314L10.153 13.2799C11.5033 13.0457 12.5616 11.99 12.7992 10.6404C13.1648 8.56313 13.1649 6.43763 12.7993 4.36027C12.5617 3.01017 11.5028 1.95403 10.152 1.72012L9.95099 1.68531C7.90464 1.33092 5.81184 1.33995 3.76861 1.71199C2.46517 1.94932 1.44777 2.97387 1.21958 4.27894L1.19803 4.40217Z" fill="#EA515E"/>
<path id="Vector 49 (Stroke)" fill-rule="evenodd" clip-rule="evenodd" d="M6.20312 4.21753H7.13359V8.03165L8.82713 9.44293L8.23146 10.1577L6.20312 8.46745V4.21753Z" fill="#EA515E"/>
</g>
</svg>
