<svg width="12" height="12" viewBox="0 0 12 12" fill="none" xmlns="http://www.w3.org/2000/svg">
<path d="M11.7208 11.7208C11.542 11.8996 11.2996 12 11.0467 12C10.7939 12 10.5514 11.8996 10.3726 11.7208L6 7.34821L1.62737 11.7208C1.44857 11.8996 1.2061 12 0.953269 12C0.700442 12 0.457967 11.8996 0.279164 11.7208C0.100415 11.542 0 11.2996 0 11.0467C0 10.7939 0.100415 10.5514 0.279164 10.3726L4.65179 6L0.279164 1.62737C0.100415 1.44857 0 1.2061 0 0.953269C0 0.700442 0.100415 0.457966 0.279164 0.279163C0.457967 0.100414 0.700442 0 0.953269 0C1.2061 0 1.44857 0.100414 1.62737 0.279163L6 4.65179L10.3726 0.279163C10.5514 0.100414 10.7939 0 11.0467 0C11.2996 0 11.542 0.100414 11.7208 0.279163C11.8996 0.457966 12 0.700442 12 0.953269C12 1.2061 11.8996 1.44857 11.7208 1.62737L7.34821 6L11.7208 10.3726C11.8996 10.5514 12 10.7939 12 11.0467C12 11.2996 11.8996 11.542 11.7208 11.7208Z" fill="currentColor"/>
</svg>
