<svg width="13" height="19" viewBox="0 0 13 19" fill="none" xmlns="http://www.w3.org/2000/svg">
<path d="M1.1523 9.28378H10.2892V11.4387H1.1523V9.28378ZM10.5382 6.64716C10.5216 6.24153 10.4469 5.83589 10.3141 5.43026C10.1979 5.02463 10.0237 4.66125 9.7913 4.34012C9.55893 4.01899 9.26018 3.76547 8.89503 3.57956C8.52989 3.39364 8.09835 3.30068 7.60043 3.30068C7.1357 3.30068 6.70416 3.38519 6.30582 3.5542C5.90748 3.70632 5.57553 3.96829 5.30997 4.34012C5.06101 4.69505 4.93653 5.15984 4.93653 5.73448C4.93653 6.25843 5.01122 6.72322 5.16059 7.12885C5.32657 7.51758 5.52574 7.88942 5.7581 8.24434C5.99047 8.58237 6.22283 8.92885 6.4552 9.28378C6.68756 9.62181 6.87844 10.0021 7.02781 10.4246C7.19379 10.8472 7.27678 11.3458 7.27678 11.9204C7.27678 12.5965 7.1523 13.2387 6.90333 13.8472C6.65437 14.4387 6.32242 14.9796 5.90748 15.4697C5.49254 15.9598 5.04441 16.3739 4.56308 16.712C4.08176 17.0331 3.60873 17.2612 3.144 17.3965L3.69171 16.0274H12.5797V18.6641H0.953125C1.7664 17.8021 2.4386 17.0162 2.96972 16.3063C3.51744 15.5965 3.92408 14.895 4.18964 14.2021C4.4718 13.5091 4.61288 12.7655 4.61288 11.9711C4.61288 11.4979 4.52989 11.0753 4.36391 10.7035C4.19794 10.3148 3.98217 9.95139 3.71661 9.61336C3.46765 9.25843 3.21039 8.89505 2.94483 8.52322C2.69586 8.13449 2.48839 7.7035 2.32242 7.23026C2.15644 6.74012 2.07346 6.16547 2.07346 5.50632C2.07346 4.49223 2.31412 3.63026 2.79545 2.9204C3.27678 2.19364 3.93238 1.63589 4.76225 1.24716C5.59213 0.858429 6.51329 0.664062 7.52574 0.664062C8.40541 0.664062 9.17719 0.824626 9.84109 1.14575C10.505 1.46688 11.061 1.88096 11.5091 2.38801C11.9573 2.89505 12.2975 3.44434 12.5299 4.03589C12.7789 4.61054 12.9199 5.15984 12.9531 5.68378L10.5382 6.64716Z" fill="white"/>
</svg>
