<svg width="16" height="18" viewBox="0 0 16 18" fill="none" xmlns="http://www.w3.org/2000/svg">
<g id="Group 11113388">
<g id="Group 11113386">
<path id="Union" fill-rule="evenodd" clip-rule="evenodd" d="M12.5598 3.3196C14.0419 3.68624 15.1406 5.02493 15.1406 6.62024C15.1406 8.21555 14.0419 9.55424 12.5598 9.92088V17.5H11.0598V9.95208C9.50829 9.63677 8.34058 8.26487 8.34058 6.62024C8.34058 4.9756 9.50829 3.6037 11.0598 3.2884V0.5H12.5598V3.3196ZM13.7808 6.62046C13.7808 7.74712 12.8675 8.66046 11.7408 8.66046C10.6141 8.66046 9.7008 7.74712 9.7008 6.62046C9.7008 5.4938 10.6141 4.58046 11.7408 4.58046C12.8675 4.58046 13.7808 5.4938 13.7808 6.62046Z" fill="currentColor"/>
<circle id="Ellipse 166" cx="11.7393" cy="6.61982" r="0.68" fill="#EA515E"/>
</g>
<g id="Group 11113387">
<path id="Union_2" fill-rule="evenodd" clip-rule="evenodd" d="M3.44007 14.6802C1.95847 14.3133 0.860156 12.9748 0.860156 11.3798C0.860156 9.78475 1.95847 8.44625 3.44007 8.07932L3.44007 0.5L4.94007 0.5L4.94007 8.04776C6.49204 8.36275 7.66016 9.73484 7.66016 11.3798C7.66016 13.0247 6.49204 14.3968 4.94007 14.7118L4.94007 17.5L3.44007 17.5L3.44007 14.6802ZM2.21994 11.3795C2.21994 10.2529 3.13327 9.33954 4.25994 9.33954C5.3866 9.33954 6.29994 10.2529 6.29994 11.3795C6.29994 12.5062 5.3866 13.4195 4.25994 13.4195C3.13327 13.4195 2.21994 12.5062 2.21994 11.3795Z" fill="currentColor"/>
<ellipse id="Ellipse 166_2" cx="0.68" cy="0.68" rx="0.68" ry="0.68" transform="matrix(1 8.74228e-08 8.74228e-08 -1 3.57935 12.0602)" fill="#EA515E"/>
</g>
</g>
</svg>
