<svg width="17" height="21" viewBox="0 0 17 21" fill="none" xmlns="http://www.w3.org/2000/svg">
<g id="Group 11113246">
<path id="Union" fill-rule="evenodd" clip-rule="evenodd" d="M13.8235 4.0156C15.3458 4.40741 16.4706 5.78926 16.4706 7.43382C16.4706 9.07839 15.3458 10.4602 13.8235 10.852V20.375H12.0588V10.852C10.5366 10.4602 9.41176 9.07839 9.41176 7.43382C9.41176 5.78926 10.5366 4.40741 12.0588 4.0156V0.375H13.8235V4.0156ZM11.1765 7.43382C11.1765 6.4592 11.9666 5.66912 12.9412 5.66912C13.9158 5.66912 14.7059 6.4592 14.7059 7.43382C14.7059 8.40844 13.9158 9.19853 12.9412 9.19853C11.9666 9.19853 11.1765 8.40844 11.1765 7.43382Z" fill="currentColor"/>
<path id="Union_2" fill-rule="evenodd" clip-rule="evenodd" d="M2.64706 16.7344C1.1248 16.3426 -9.57182e-07 14.9607 -8.1341e-07 13.3162C-6.69637e-07 11.6716 1.1248 10.2898 2.64706 9.89796L2.64706 0.375L4.41177 0.375L4.41177 9.89796C5.93402 10.2898 7.05882 11.6716 7.05882 13.3162C7.05882 14.9607 5.93402 16.3426 4.41176 16.7344L4.41176 20.375L2.64706 20.375L2.64706 16.7344ZM5.29412 13.3162C5.29412 14.2908 4.50403 15.0809 3.52941 15.0809C2.55479 15.0809 1.76471 14.2908 1.76471 13.3162C1.76471 12.3416 2.55479 11.5515 3.52941 11.5515C4.50403 11.5515 5.29412 12.3416 5.29412 13.3162Z" fill="currentColor"/>
</g>
</svg>
