<svg viewBox="0 0 20 20" fill="none" xmlns="http://www.w3.org/2000/svg">
<path d="M17.5004 20.0001H13.3335V18.3334H17.5004C17.7215 18.3334 17.9335 18.2455 18.0897 18.0893C18.246 17.933 18.3338 17.721 18.3338 17.5V13.333H20.0006V17.5C20.0006 18.163 19.7372 18.799 19.2683 19.2678C18.7995 19.7367 18.1635 20.0001 17.5004 20.0001Z" fill="currentColor"/>
<path d="M1.66678 6.66712H0V2.50017C0 1.83708 0.26341 1.20116 0.732283 0.732283C1.20116 0.26341 1.83708 0 2.50017 0L6.66712 0V1.66678H2.50017C2.27914 1.66678 2.06717 1.75458 1.91088 1.91088C1.75458 2.06717 1.66678 2.27914 1.66678 2.50017V6.66712Z" fill="currentColor"/>
<path d="M6.66688 20.0001H2.49993C1.83684 20.0001 1.20091 19.7367 0.732039 19.2678C0.263166 18.799 -0.000244141 18.163 -0.000244141 17.5L-0.000244141 13.333H1.66654V17.5C1.66654 17.721 1.75434 17.933 1.91063 18.0893C2.06692 18.2455 2.2789 18.3334 2.49993 18.3334H6.66688V20.0001Z" fill="currentColor"/>
<path d="M20.0006 6.66712H18.3338V2.50017C18.3338 2.27914 18.246 2.06717 18.0897 1.91088C17.9335 1.75458 17.7215 1.66678 17.5004 1.66678H13.3335V0H17.5004C18.1635 0 18.7995 0.26341 19.2683 0.732283C19.7372 1.20116 20.0006 1.83708 20.0006 2.50017V6.66712Z" fill="currentColor"/>
</svg>
