<svg width="22" height="20" viewBox="0 0 22 20" fill="none" xmlns="http://www.w3.org/2000/svg">
<path d="M15.2831 1.60938C14.392 1.62264 13.5203 1.8608 12.7561 2.29979C11.9919 2.73878 11.3622 3.36306 10.9307 4.10958C10.4991 3.36306 9.86941 2.73878 9.10521 2.29979C8.34101 1.8608 7.46935 1.62264 6.57825 1.60938C5.15774 1.66846 3.81938 2.26341 2.85558 3.26423C1.89178 4.26506 1.38088 5.59041 1.4345 6.95073C1.4345 12.0837 10.1045 18.0123 10.4733 18.2638L10.9307 18.5737L11.3881 18.2638C11.7568 18.0138 20.4268 12.0837 20.4268 6.95073C20.4804 5.59041 19.9695 4.26506 19.0057 3.26423C18.0419 2.26341 16.7036 1.66846 15.2831 1.60938Z" stroke="currentColor" stroke-width="1.7"/>
<circle cx="15.3413" cy="6.69824" r="1.525" stroke="currentColor" stroke-width="1.7"/>
</svg>
