<svg width="25" height="26" viewBox="0 0 25 26" fill="none" xmlns="http://www.w3.org/2000/svg">
<path fill-rule="evenodd" clip-rule="evenodd" d="M7.3125 4.50098C7.3125 6.05428 6.0533 7.31348 4.5 7.31348C2.9467 7.31348 1.6875 6.05428 1.6875 4.50098C1.6875 2.94768 2.9467 1.68848 4.5 1.68848C6.0533 1.68848 7.3125 2.94768 7.3125 4.50098ZM8.93788 5.25039C8.58106 7.37896 6.72995 9.00098 4.5 9.00098C2.01472 9.00098 0 6.98626 0 4.50098C0 2.0157 2.01472 0.000976562 4.5 0.000976562C6.72954 0.000976562 8.58038 1.62239 8.93768 3.75039H12.4998C12.914 3.75039 13.2498 4.08618 13.2498 4.50039C13.2498 4.9146 12.914 5.25039 12.4998 5.25039H8.93788Z" fill="#404649"/>
<path fill-rule="evenodd" clip-rule="evenodd" d="M5.3499 12.5014C5.3499 12.0319 4.96934 11.6514 4.4999 11.6514C4.03046 11.6514 3.6499 12.0319 3.6499 12.5014V16.0821C1.57107 16.4796 0 18.3073 0 20.502C0 22.9872 2.01472 25.002 4.5 25.002C6.98528 25.002 9 22.9872 9 20.502C9 18.3072 7.42883 16.4795 5.3499 16.0821V12.5014ZM7.3125 20.502C7.3125 22.0553 6.0533 23.3145 4.5 23.3145C2.9467 23.3145 1.6875 22.0553 1.6875 20.502C1.6875 18.9487 2.9467 17.6895 4.5 17.6895C6.0533 17.6895 7.3125 18.9487 7.3125 20.502Z" fill="#EA515E"/>
<path fill-rule="evenodd" clip-rule="evenodd" d="M19.6501 12.5006C19.6501 12.97 20.0307 13.3506 20.5001 13.3506C20.9695 13.3506 21.3501 12.97 21.3501 12.5006L21.3501 8.91982C23.4289 8.52237 25 6.69466 25 4.5C25 2.01472 22.9853 -1.76132e-07 20.5 -3.93403e-07C18.0147 -6.10673e-07 16 2.01472 16 4.5C16 6.69473 17.5712 8.52249 19.6501 8.91986L19.6501 12.5006ZM17.6875 4.5C17.6875 2.9467 18.9467 1.6875 20.5 1.6875C22.0533 1.6875 23.3125 2.9467 23.3125 4.5C23.3125 6.0533 22.0533 7.3125 20.5 7.3125C18.9467 7.3125 17.6875 6.0533 17.6875 4.5Z" fill="#EA515E"/>
<path fill-rule="evenodd" clip-rule="evenodd" d="M23.3118 20.5C23.3118 22.0533 22.0526 23.3125 20.4993 23.3125C18.946 23.3125 17.6868 22.0533 17.6868 20.5C17.6868 18.9467 18.946 17.6875 20.4993 17.6875C22.0526 17.6875 23.3118 18.9467 23.3118 20.5ZM24.9993 20.5C24.9993 22.9853 22.9845 25 20.4993 25C18.4759 25 16.7644 23.6646 16.1981 21.827C16.1344 21.8423 16.0678 21.8504 15.9994 21.8504H11.9994C11.53 21.8504 11.1494 21.4698 11.1494 21.0004C11.1494 20.5309 11.53 20.1504 11.9994 20.1504H15.9994C16.0038 20.1504 16.0082 20.1504 16.0126 20.1505C16.191 17.8285 18.1316 16 20.4993 16C22.9845 16 24.9993 18.0147 24.9993 20.5Z" fill="#404649"/>
</svg>
