<svg width="20" height="21" viewBox="0 0 20 21" fill="none" xmlns="http://www.w3.org/2000/svg">
<path id="Union" fill-rule="evenodd" clip-rule="evenodd" d="M3.6 6.225C4.84264 6.225 5.85 5.21764 5.85 3.975C5.85 2.73236 4.84264 1.725 3.6 1.725C2.35736 1.725 1.35 2.73236 1.35 3.975C1.35 5.21764 2.35736 6.225 3.6 6.225ZM3.6 7.575C5.33103 7.575 6.77671 6.35324 7.12176 4.725H10C10.4142 4.725 10.75 4.38921 10.75 3.975C10.75 3.56079 10.4142 3.225 10 3.225H7.12176C6.77671 1.59676 5.33103 0.375 3.6 0.375C1.61177 0.375 0 1.98677 0 3.975C0 5.96322 1.61177 7.575 3.6 7.575ZM3.59992 9.69492C3.97548 9.69492 4.27992 9.99937 4.27992 10.3749V13.2391C5.94306 13.557 7.2 15.0192 7.2 16.775C7.2 18.7632 5.58822 20.375 3.6 20.375C1.61177 20.375 0 18.7632 0 16.775C0 15.0193 1.25686 13.5571 2.91992 13.2391V10.3749C2.91992 9.99937 3.22437 9.69492 3.59992 9.69492ZM3.6 19.025C4.84264 19.025 5.85 18.0176 5.85 16.775C5.85 15.5324 4.84264 14.525 3.6 14.525C2.35736 14.525 1.35 15.5324 1.35 16.775C1.35 18.0176 2.35736 19.025 3.6 19.025ZM15.7201 10.3751C15.7201 10.7506 16.0245 11.0551 16.4001 11.0551C16.7756 11.0551 17.0801 10.7506 17.0801 10.3751V7.51085C18.7431 7.1929 20 5.73073 20 3.975C20 1.98678 18.3882 0.375 16.4 0.375C14.4118 0.375 12.8 1.98677 12.8 3.975C12.8 5.73078 14.0569 7.19299 15.7201 7.51088V10.3751ZM14.15 3.975C14.15 2.73236 15.1574 1.725 16.4 1.725C17.6426 1.725 18.65 2.73236 18.65 3.975C18.65 5.21764 17.6426 6.225 16.4 6.225C15.1574 6.225 14.15 5.21764 14.15 3.975ZM16.4 19.025C17.6426 19.025 18.65 18.0176 18.65 16.775C18.65 15.5324 17.6426 14.525 16.4 14.525C15.1574 14.525 14.15 15.5324 14.15 16.775C14.15 18.0176 15.1574 19.025 16.4 19.025ZM16.4 20.375C18.3882 20.375 20 18.7632 20 16.775C20 14.7868 18.3882 13.175 16.4 13.175C14.506 13.175 12.9536 14.6376 12.8107 16.495L12.7999 16.4949H9.59992C9.22437 16.4949 8.91992 16.7994 8.91992 17.1749C8.91992 17.5505 9.22437 17.8549 9.59992 17.8549H12.7999C12.8547 17.8549 12.9079 17.8484 12.959 17.8362C13.4119 19.3065 14.7811 20.375 16.4 20.375Z" fill="currentColor"/>
</svg>
