<svg width="24" height="25" viewBox="0 0 24 25" fill="none" xmlns="http://www.w3.org/2000/svg">
<path d="M15.2585 8.82666C15.2585 9.97357 14.3288 10.9033 13.1819 10.9033C12.035 10.9033 11.1052 9.97357 11.1052 8.82666C11.1052 7.67975 12.035 6.75 13.1819 6.75C14.3288 6.75 15.2585 7.67975 15.2585 8.82666Z" stroke="#EA515E" stroke-width="1.5"/>
<mask id="path-2-inside-1_41_708" fill="white">
<path fill-rule="evenodd" clip-rule="evenodd" d="M18.2037 17.9782C18.3086 17.636 18.3644 17.2775 18.3644 16.9082C18.3644 14.5265 16.0443 12.5957 13.1822 12.5957C10.3202 12.5957 8 14.5265 8 16.9082C8 17.2775 8.0558 17.636 8.16076 17.9782C8.46637 18.6915 9.17482 19.1912 10 19.1912H16.3644C17.1896 19.1912 17.8981 18.6915 18.2037 17.9782Z"/>
</mask>
<path d="M18.2037 17.9782L19.5825 18.5689L19.6141 18.495L19.6377 18.4181L18.2037 17.9782ZM8.16076 17.9782L6.72673 18.4181L6.75031 18.495L6.78197 18.5689L8.16076 17.9782ZM16.8644 16.9082C16.8644 17.1252 16.8318 17.3355 16.7696 17.5382L19.6377 18.4181C19.7854 17.9366 19.8644 17.4299 19.8644 16.9082H16.8644ZM13.1822 14.0957C15.4857 14.0957 16.8644 15.6011 16.8644 16.9082H19.8644C19.8644 13.4518 16.6029 11.0957 13.1822 11.0957V14.0957ZM9.5 16.9082C9.5 15.6011 10.8788 14.0957 13.1822 14.0957V11.0957C9.76153 11.0957 6.5 13.4518 6.5 16.9082H9.5ZM9.5948 17.5382C9.5326 17.3355 9.5 17.1252 9.5 16.9082H6.5C6.5 17.4299 6.579 17.9366 6.72673 18.4181L9.5948 17.5382ZM10 17.6912C9.79605 17.6912 9.61726 17.5689 9.53956 17.3875L6.78197 18.5689C7.31547 19.8142 8.5536 20.6912 10 20.6912V17.6912ZM16.3644 17.6912H10V20.6912H16.3644V17.6912ZM16.8249 17.3875C16.7472 17.5689 16.5684 17.6912 16.3644 17.6912V20.6912C17.8108 20.6912 19.049 19.8142 19.5825 18.5689L16.8249 17.3875Z" fill="#EA515E" mask="url(#path-2-inside-1_41_708)"/>
<rect x="22.65" y="0.85" width="23.3" height="18.98" rx="4.15" transform="rotate(90 22.65 0.85)" stroke="#404649" stroke-width="1.7"/>
<path d="M1 5L3 5" stroke="#404649" stroke-width="1.7" stroke-linecap="round"/>
<path d="M1 9L3 9" stroke="#404649" stroke-width="1.7" stroke-linecap="round"/>
<path d="M1 13L3 13" stroke="#404649" stroke-width="1.7" stroke-linecap="round"/>
<path d="M1 17L3 17" stroke="#404649" stroke-width="1.7" stroke-linecap="round"/>
<path d="M1 21L3 21" stroke="#404649" stroke-width="1.7" stroke-linecap="round"/>
</svg>
