<svg viewBox="0 0 21 26" fill="none" xmlns="http://www.w3.org/2000/svg">
<path fill-rule="evenodd" clip-rule="evenodd" d="M17.4187 22H3.58128C3.2923 21.9234 3.01024 21.82 2.73891 21.6908C2.08717 21.3804 1.51399 20.9287 1.06168 20.369C0.609371 19.8094 0.289482 19.156 0.125633 18.4572C-0.0382165 17.7583 -0.0418432 17.0319 0.11502 16.3315L1.53513 9.99286C1.97073 8.04853 3.04862 6.30452 4.59747 5.03803C6.14631 3.77155 8.07723 3.05527 10.0833 3.00307C12.0894 2.95087 14.0554 3.56573 15.669 4.74991C17.2826 5.9341 18.4511 7.61966 18.9887 9.53867L20.823 16.0891C21.0221 16.8008 21.0538 17.5485 20.9136 18.2739C20.7733 18.9992 20.4661 19.6826 20.0157 20.2706C19.5654 20.8586 18.9842 21.3353 18.3175 21.6635C18.029 21.8055 17.7278 21.918 17.4187 22ZM17.4601 19.9488C17.8605 19.7517 18.209 19.4646 18.478 19.1104C18.7497 18.7584 18.9349 18.3484 19.019 17.9129C19.1032 17.4774 19.0839 17.0285 18.9627 16.6017L17.1284 10.0513C16.7062 8.54398 15.7885 7.21998 14.5211 6.28978C13.2538 5.35958 11.7095 4.87658 10.1338 4.91755C8.5581 4.95852 7.04143 5.52112 5.82488 6.5159C4.60832 7.51068 3.7617 8.88056 3.41961 10.4078L2.00046 16.7474C1.90635 17.1676 1.90852 17.6034 2.00679 18.0226C2.10507 18.4419 2.29695 18.8339 2.56827 19.1697C2.8396 19.5055 3.18343 19.7765 3.5744 19.9628C3.96537 20.149 4.39349 20.2458 4.82717 20.2459H16.1717C16.6186 20.2476 17.0597 20.1459 17.4601 19.9488Z" fill="#404649"/>
<path fill-rule="evenodd" clip-rule="evenodd" d="M14.6286 23H12.5551C12.3764 23.252 12.1554 23.4736 11.9 23.6544C11.4366 23.9826 10.8827 24.1599 10.3143 24.1623C9.74584 24.1599 9.192 23.9826 8.72854 23.6544C8.47321 23.4736 8.25218 23.252 8.07347 23H6C6.28228 23.7646 6.76563 24.4446 7.40496 24.9655C8.22603 25.6345 9.25385 26 10.3143 26C11.3747 26 12.4026 25.6345 13.2236 24.9655C13.8629 24.4446 14.3463 23.7646 14.6286 23Z" fill="#EA515E"/>
<circle cx="10" cy="1" r="1" fill="#EA515E"/>
</svg>
