<svg viewBox="0 0 17 15" fill="none" xmlns="http://www.w3.org/2000/svg">
<path d="M9.45437 0.9375V14.0625C9.45437 14.5803 9.03108 15 8.50893 15H7.95112C7.7031 14.999 7.46542 14.9013 7.28932 14.7281L3.66829 11.1375C3.13689 10.6099 2.41595 10.3132 1.66397 10.3125C0.744984 10.3125 0 9.57377 0 8.6625V6.3375C0 5.42623 0.744984 4.6875 1.66397 4.6875C2.41595 4.68684 3.13689 4.3901 3.66829 3.8625L7.28932 0.271875C7.46542 0.0986773 7.7031 0.00103558 7.95112 0H8.50893C9.03108 0 9.45437 0.419733 9.45437 0.9375ZM15.127 2.55938C15.0361 2.46809 14.9155 2.41164 14.7866 2.4C14.6554 2.39668 14.5287 2.44762 14.4368 2.54063L13.7656 3.20625C13.5974 3.38604 13.5974 3.66396 13.7656 3.84375C15.5813 5.94876 15.5813 9.05124 13.7656 11.1562C13.5974 11.336 13.5974 11.614 13.7656 11.7937L14.4368 12.4594C14.5287 12.5524 14.6554 12.6033 14.7866 12.6C14.9159 12.59 15.0371 12.5333 15.127 12.4406C17.6243 9.61234 17.6243 5.38766 15.127 2.55938ZM12.1394 5.0625C12.0023 5.05733 11.869 5.10816 11.7707 5.20312L11.0994 5.87813C10.9383 6.03421 10.9106 6.28139 11.0332 6.46875C11.4488 7.0945 11.4488 7.9055 11.0332 8.53125C10.9106 8.71861 10.9383 8.96579 11.0994 9.12187L11.7707 9.79688C11.87 9.88939 12.0035 9.93692 12.1394 9.92813C12.2759 9.91959 12.4027 9.85505 12.4892 9.75C13.4977 8.41667 13.4977 6.58333 12.4892 5.25C12.401 5.14557 12.2759 5.0785 12.1394 5.0625Z" fill="currentColor" />
</svg>
