<svg width="26" height="21" viewBox="0 0 26 21" fill="none" xmlns="http://www.w3.org/2000/svg">
<g id="Group 5459">
<path id="Ellipse 59" d="M16.2589 4.36608C16.2589 6.36319 14.6399 7.98217 12.6428 7.98217C10.6457 7.98217 9.02673 6.36319 9.02673 4.36608C9.02673 2.36898 10.6457 0.75 12.6428 0.75C14.6399 0.75 16.2589 2.36898 16.2589 4.36608Z" stroke="currentColor" stroke-width="1.5"/>
<path id="Vector 37" d="M6.82149 2.91077C5.57404 2.91077 3.91077 4.07506 3.91077 5.82149C3.91077 7.56792 5.57404 8.73221 6.82149 8.73221" stroke="currentColor" stroke-width="1.5" stroke-linecap="round"/>
<path id="Vector 39" d="M17.9999 3C19.2474 3 20.9106 4.16429 20.9106 5.91072C20.9106 7.65715 19.2474 8.82144 17.9999 8.82144" stroke="currentColor" stroke-width="1.5" stroke-linecap="round"/>
<path id="Vector 38" d="M5.36608 10.9152C2.45536 10.9152 1 13.2437 1 14.5536C1 15.8634 2.09152 17.1004 3.18304 17.1004" stroke="currentColor" stroke-width="1.5" stroke-linecap="round"/>
<path id="Vector 40" d="M19.9197 10.9152C22.8304 10.9152 24.2858 13.2437 24.2858 14.5536C24.2858 15.8634 23.5581 17.1004 22.4666 17.1004" stroke="currentColor" stroke-width="1.5" stroke-linecap="round"/>
<g id="Intersect">
<mask id="path-6-inside-1_1_1006" fill="white">
<path fill-rule="evenodd" clip-rule="evenodd" d="M20.6419 16.5924C20.529 18.7005 18.7839 20.375 16.6477 20.375H8.63872C6.50253 20.375 4.75745 18.7005 4.64453 16.5924C4.80627 13.0323 8.32552 10.1875 12.6432 10.1875C16.9609 10.1875 20.4801 13.0323 20.6419 16.5924Z"/>
</mask>
<path d="M20.6419 16.5924L22.1397 16.6727L22.1437 16.5985L22.1403 16.5244L20.6419 16.5924ZM4.64453 16.5924L3.14608 16.5244L3.14271 16.5985L3.14668 16.6727L4.64453 16.5924ZM19.144 16.5122C19.0735 17.8284 17.9823 18.875 16.6477 18.875V21.875C19.5854 21.875 21.9844 19.5725 22.1397 16.6727L19.144 16.5122ZM16.6477 18.875H8.63872V21.875H16.6477V18.875ZM8.63872 18.875C7.30408 18.875 6.21289 17.8284 6.14238 16.5122L3.14668 16.6727C3.30201 19.5725 5.70098 21.875 8.63872 21.875V18.875ZM6.14299 16.6605C6.25802 14.1284 8.87891 11.6875 12.6432 11.6875V8.6875C7.77212 8.6875 3.35452 11.9362 3.14608 16.5244L6.14299 16.6605ZM12.6432 11.6875C16.4075 11.6875 19.0284 14.1284 19.1434 16.6605L22.1403 16.5244C21.9319 11.9362 17.5143 8.6875 12.6432 8.6875V11.6875Z" fill="currentColor" mask="url(#path-6-inside-1_1_1006)"/>
</g>
</g>
</svg>
