<svg width="19" height="20" viewBox="0 0 19 20" fill="none" xmlns="http://www.w3.org/2000/svg">
<g id="Group 11113142">
<g id="Group 11112999">
<circle id="Ellipse 59" cx="10" cy="4.5" r="3.75" stroke="#404649" stroke-width="1.5"/>
<g id="Intersect">
<mask id="path-2-inside-1_1_1595" fill="white">
<path fill-rule="evenodd" clip-rule="evenodd" d="M18.5004 16.2579C18.3677 18.347 16.6312 20.0003 14.5086 20.0003H4.49184C2.36923 20.0003 0.632779 18.347 0.5 16.2579C0.702668 12.7771 4.65467 10.0002 9.50022 10.0002C14.3458 10.0002 18.2978 12.7771 18.5004 16.2579Z"/>
</mask>
<path d="M18.5004 16.2579L19.9974 16.353L20.0032 16.2619L19.9979 16.1707L18.5004 16.2579ZM0.5 16.2579L-0.997464 16.1707L-1.00277 16.2619L-0.996979 16.353L0.5 16.2579ZM17.0035 16.1627C16.9206 17.467 15.8347 18.5003 14.5086 18.5003V21.5003C17.4278 21.5003 19.8148 19.2269 19.9974 16.353L17.0035 16.1627ZM14.5086 18.5003H4.49184V21.5003H14.5086V18.5003ZM4.49184 18.5003C3.16578 18.5003 2.07988 17.467 1.99698 16.1627L-0.996979 16.353C-0.814319 19.2269 1.57268 21.5003 4.49184 21.5003V18.5003ZM1.99746 16.3451C2.06544 15.1775 2.77032 13.9935 4.11717 13.054C5.45989 12.1175 7.35293 11.5002 9.50022 11.5002V8.50024C6.80196 8.50024 4.29623 9.27143 2.40089 10.5935C0.509688 11.9126 -0.862774 13.8574 -0.997464 16.1707L1.99746 16.3451ZM9.50022 11.5002C11.6475 11.5002 13.5406 12.1175 14.8833 13.054C16.2301 13.9935 16.935 15.1775 17.003 16.3451L19.9979 16.1707C19.8632 13.8574 18.4908 11.9126 16.5996 10.5935C14.7042 9.27143 12.1985 8.50024 9.50022 8.50024V11.5002Z" fill="currentColor" mask="url(#path-2-inside-1_1_1595)"/>
</g>
</g>
</g>
</svg>
