<svg width="40" height="40" viewBox="0 0 40 40" fill="none" xmlns="http://www.w3.org/2000/svg">
<g id="Group 5420">
<g id="Group 5415">
<circle id="Ellipse 18" cx="20" cy="20" r="20" transform="matrix(-1 0 0 1 40 0)" fill="white" fill-opacity="0.25"/>
</g>
<path id="Vector" d="M14.375 27H21.375C23.7874 27 25.75 25.0374 25.75 22.625V17.375C25.75 14.9626 23.7874 13 21.375 13H14.375C11.9626 13 10 14.9626 10 17.375V22.625C10 25.0374 11.9626 27 14.375 27ZM31 16.7739V23.178C31 23.8404 30.6325 24.4354 30.0401 24.7311C29.7925 24.8545 29.5265 24.9158 29.2622 24.9158C28.8939 24.9158 28.5299 24.7976 28.2219 24.5666C28.1895 24.5421 27.5 23.8579 27.5 23.8579V16.101C27.5 16.101 28.1877 15.4106 28.2219 15.3852C28.7504 14.988 29.446 14.9241 30.0401 15.2208C30.6343 15.5174 31 16.1115 31 16.7739Z" fill="white"/>
</g>
</svg>
