<svg width="25" height="25" viewBox="0 0 25 25" fill="none" xmlns="http://www.w3.org/2000/svg">
<path d="M11.45 1.64545C12.0997 1.27032 12.9003 1.27032 13.55 1.64545L21.3753 6.1634C22.0251 6.53853 22.4253 7.23179 22.4253 7.98205V17.018C22.4253 17.7682 22.0251 18.4615 21.3753 18.8366L13.55 23.3546C12.9003 23.7297 12.0997 23.7297 11.45 23.3546L3.62468 18.8366C2.97494 18.4615 2.57468 17.7682 2.57468 17.018V7.98205C2.57468 7.23179 2.97494 6.53853 3.62468 6.1634L11.45 1.64545Z" stroke="#404649" stroke-width="1.8"/>
<path d="M12.8867 7.16133L13.8378 9.66845C14.0847 10.3194 14.6939 10.762 15.3893 10.7957L18.0676 10.9255C18.2974 10.9366 18.3915 11.226 18.2121 11.3701L16.1216 13.0493C15.5788 13.4853 15.3461 14.2015 15.5289 14.8733L16.2332 17.4606C16.2936 17.6826 16.0474 17.8615 15.8549 17.7354L13.6119 16.2661C13.0295 15.8847 12.2764 15.8847 11.6941 16.2661L9.45098 17.7354C9.25852 17.8615 9.01235 17.6826 9.07277 17.4606L9.77699 14.8733C9.95982 14.2015 9.72711 13.4853 9.18435 13.0493L7.09384 11.3701C6.91447 11.226 7.00851 10.9366 7.2383 10.9255L9.91661 10.7957C10.612 10.762 11.2212 10.3194 11.4681 9.66845L12.4192 7.16133C12.5008 6.94622 12.8051 6.94623 12.8867 7.16133Z" stroke="#EA515E" stroke-width="1.5"/>
</svg>
