<svg width="19" height="22" viewBox="0 0 19 22" fill="none" xmlns="http://www.w3.org/2000/svg">
<path d="M17.9273 7.4998C17.799 7.5988 15.5346 8.8682 15.5346 11.6908C15.5346 14.9556 18.416 16.1106 18.5022 16.1392C18.4889 16.2096 18.0445 17.721 16.983 19.261C16.0366 20.6162 15.0482 21.9692 13.5445 21.9692C12.0408 21.9692 11.6538 21.1002 9.91794 21.1002C8.22629 21.1002 7.62482 21.9978 6.24939 21.9978C4.87396 21.9978 3.91425 20.7438 2.81081 19.2038C1.53268 17.3954 0.5 14.586 0.5 11.9196C0.5 7.6428 3.29509 5.3746 6.04595 5.3746C7.50762 5.3746 8.72604 6.3294 9.64373 6.3294C10.5172 6.3294 11.8794 5.3174 13.5423 5.3174C14.1725 5.3174 16.4369 5.3746 17.9273 7.4998ZM12.7528 3.5068C13.4405 2.695 13.927 1.5686 13.927 0.4422C13.927 0.286 13.9138 0.1276 13.885 0C12.7661 0.0418 11.4349 0.7414 10.6322 1.6676C10.002 2.3804 9.41376 3.5068 9.41376 4.6486C9.41376 4.8202 9.44251 4.9918 9.45577 5.0468C9.52654 5.06 9.64152 5.0754 9.75651 5.0754C10.7604 5.0754 12.0231 4.4066 12.7528 3.5068Z" fill="#131022"/>
</svg>
