<svg
xmlns="http://www.w3.org/2000/svg"
width="40"
height="40"
viewBox="0 0 40 40"
fill="none"
>
<path
d="M14.2929 16.9497C14.6986 14.1096 17.131 12 20 12C22.869 12 25.3014 14.1096 25.7071 16.9497L26.6739 23.7172C26.846 24.922 25.9111 26 24.694 26H15.306C14.0889 26 13.154 24.922 13.3261 23.7172L14.2929 16.9497Z"
fill="currentColor"
/>
<path
d="M17 27.0619C17 28.1323 17.8677 29 18.9381 29H21.0619C22.1323 29 23 28.1323 23 27.0619C23 27.0277 22.9723 27 22.9381 27H17.0619C17.0277 27 17 27.0277 17 27.0619Z"
fill="currentColor"
/>
</svg>