<svg width="27" height="27" viewBox="0 0 27 27" fill="none" xmlns="http://www.w3.org/2000/svg">
<g id="Calendar Active 2">
<g id="Group 11113003">
<path id="Union" fill-rule="evenodd" clip-rule="evenodd" d="M7.34422 2.71429C7.34422 2.3198 7.72388 2 8.19222 2C8.66056 2 9.04022 2.3198 9.04022 2.71429V3.71423H17.5197V2.71429C17.5197 2.3198 17.8993 2 18.3677 2C18.836 2 19.2157 2.3198 19.2157 2.71429V3.71423H20.064C23.3424 3.71423 26 6.40052 26 9.71424V20C26 23.3137 23.3424 26 20.064 26H6.49596C3.21758 26 0.559937 23.3137 0.559937 20V9.71424C0.559937 6.40052 3.21758 3.71423 6.49596 3.71423H7.34422V2.71429ZM17.5197 5.42852V5.57144C17.5197 5.96593 17.8993 6.28573 18.3677 6.28573C18.836 6.28573 19.2157 5.96593 19.2157 5.57144V5.42852H20.064C22.4057 5.42852 24.304 7.3473 24.304 9.71424V20C24.304 22.3669 22.4057 24.2857 20.064 24.2857H6.49596C4.15426 24.2857 2.25594 22.3669 2.25594 20V9.71424C2.25594 7.3473 4.15426 5.42852 6.49596 5.42852H7.34422V5.57144C7.34422 5.96593 7.72388 6.28573 8.19222 6.28573C8.66056 6.28573 9.04022 5.96593 9.04022 5.57144V5.42852H17.5197Z" fill="#404649"/>
<path id="Union_2" fill-rule="evenodd" clip-rule="evenodd" d="M8.19179 13.1425C8.66013 13.1425 9.0398 12.7588 9.0398 12.2854C9.0398 11.812 8.66013 11.4282 8.19179 11.4282C7.72346 11.4282 7.34379 11.812 7.34379 12.2854C7.34379 12.7588 7.72346 13.1425 8.19179 13.1425ZM8.19175 18.2857C8.66009 18.2857 9.03976 17.9019 9.03976 17.4285C9.03976 16.9551 8.66009 16.5714 8.19175 16.5714C7.72341 16.5714 7.34375 16.9551 7.34375 17.4285C7.34375 17.9019 7.72341 18.2857 8.19175 18.2857ZM14.1275 12.2854C14.1275 12.7588 13.7478 13.1425 13.2795 13.1425C12.8111 13.1425 12.4315 12.7588 12.4315 12.2854C12.4315 11.812 12.8111 11.4282 13.2795 11.4282C13.7478 11.4282 14.1275 11.812 14.1275 12.2854ZM13.2795 18.2857C13.7478 18.2857 14.1275 17.9019 14.1275 17.4285C14.1275 16.9551 13.7478 16.5714 13.2795 16.5714C12.8111 16.5714 12.4315 16.9551 12.4315 17.4285C12.4315 17.9019 12.8111 18.2857 13.2795 18.2857ZM19.2157 12.2854C19.2157 12.7588 18.836 13.1425 18.3677 13.1425C17.8994 13.1425 17.5197 12.7588 17.5197 12.2854C17.5197 11.812 17.8994 11.4282 18.3677 11.4282C18.836 11.4282 19.2157 11.812 19.2157 12.2854ZM18.3677 18.2857C18.836 18.2857 19.2157 17.9019 19.2157 17.4285C19.2157 16.9551 18.836 16.5714 18.3677 16.5714C17.8994 16.5714 17.5197 16.9551 17.5197 17.4285C17.5197 17.9019 17.8994 18.2857 18.3677 18.2857Z" fill="#EA515E"/>
</g>
</g>
</svg>
