<svg width="14" height="15" viewBox="0 0 14 15" fill="none" xmlns="http://www.w3.org/2000/svg">
<path id="Vector" d="M9.50717 5.33467L10.3262 6.16592L6.94692 9.495C6.72117 9.72075 6.42425 9.83333 6.12617 9.83333C5.82808 9.83333 5.52825 9.71958 5.30017 9.49208L3.67733 7.91942L4.48992 7.08117L6.11917 8.66025L9.50717 5.33467ZM14 7.5C14 11.3599 10.8599 14.5 7 14.5C3.14008 14.5 0 11.3599 0 7.5C0 3.64008 3.14008 0.5 7 0.5C10.8599 0.5 14 3.64008 14 7.5ZM12.8333 7.5C12.8333 4.2835 10.2165 1.66667 7 1.66667C3.7835 1.66667 1.16667 4.2835 1.16667 7.5C1.16667 10.7165 3.7835 13.3333 7 13.3333C10.2165 13.3333 12.8333 10.7165 12.8333 7.5Z" fill="#00AA2E"/>
</svg>
