<svg width="25" height="26" viewBox="0 0 25 26" fill="none" xmlns="http://www.w3.org/2000/svg">
<path fill-rule="evenodd" clip-rule="evenodd" d="M0.525447 18.5108C-0.163837 14.6202 -0.178546 10.5828 0.502479 6.68796L0.54095 6.46796C1.06817 3.45273 3.41877 1.08562 6.43022 0.537284C10.2698 -0.161839 14.2026 -0.178812 18.0482 0.487141L18.4071 0.549299C21.5085 1.08642 23.9399 3.51143 24.4854 6.61137C25.1715 10.5105 25.1715 14.4997 24.4853 18.3987C23.9398 21.4977 21.5095 23.9217 18.4092 24.4594L18.0582 24.5203C14.2061 25.1882 10.2664 25.1712 6.42019 24.47C3.40788 23.9207 1.05739 21.5133 0.525447 18.5108ZM2.13874 6.97406C1.49151 10.6756 1.50502 14.5181 2.16106 18.221C2.57412 20.5524 4.40135 22.4135 6.71813 22.8358C10.3721 23.502 14.1148 23.5182 17.7744 22.8835L18.1253 22.8228C20.5358 22.4047 22.4252 20.52 22.8494 18.1107C23.502 14.4023 23.5022 10.6078 22.8495 6.89927C22.4253 4.48904 20.5349 2.60361 18.1236 2.18602L17.7647 2.12387C14.1115 1.49121 10.3754 1.50733 6.72778 2.1715C4.40087 2.59519 2.58458 4.42423 2.17721 6.75407L2.13874 6.97406Z" fill="currentColor"/>
<path fill-rule="evenodd" clip-rule="evenodd" d="M11.0739 6.64453H12.7349V13.4536L15.7583 15.973L14.6949 17.2491L11.0739 14.2316V6.64453Z" fill="#EA515E"/>
</svg>
