<svg width="10" height="10" viewBox="0 0 10 10" fill="none" xmlns="http://www.w3.org/2000/svg">
<path d="M7.15316 1.12223C7.26563 1.00578 7.40017 0.912891 7.54893 0.84899C7.69769 0.785088 7.85768 0.751453 8.01958 0.750046C8.18147 0.748639 8.34203 0.779489 8.49187 0.840796C8.64172 0.902103 8.77785 0.992638 8.89234 1.10712C9.00682 1.2216 9.09735 1.35774 9.15866 1.50758C9.21997 1.65743 9.25082 1.81798 9.24941 1.97988C9.248 2.14177 9.21437 2.30177 9.15047 2.45053C9.08657 2.59928 8.99368 2.73383 8.87722 2.8463L8.39378 3.32975L6.66971 1.60568L7.15316 1.12223Z" fill="currentColor"/>
<path d="M5.80824 2.46777L0.700048 7.57596V9.30003H2.42412L7.53291 4.19184L5.80763 2.46777H5.80824Z" fill="currentColor"/>
</svg>
