<svg width="23" height="22" viewBox="0 0 23 22" fill="none" xmlns="http://www.w3.org/2000/svg">
<path d="M22.5 11C22.5 4.92422 17.5758 0 11.5 0C5.42422 0 0.5 4.92422 0.5 11C0.5 16.491 4.52016 21.0418 9.78211 21.8672V14.1823H6.99129V11H9.78211V8.57699C9.78211 5.82227 11.4214 4.29773 13.935 4.29773C15.1403 4.29773 16.4002 4.51473 16.4002 4.51473V7.2209H15.014C13.6459 7.2209 13.2239 8.07082 13.2239 8.93879V11H16.2738L15.7857 14.1823H13.2239V21.8672C18.4798 21.0418 22.5 16.491 22.5 11Z" fill="#1877F2"/>
<path d="M15.7793 14.1824L16.2679 11.0001H13.218V8.93891C13.218 8.07094 13.6459 7.22102 15.008 7.22102H16.3942V4.51484C16.3942 4.51484 15.1344 4.29785 13.9291 4.29785C11.4159 4.29785 9.77617 5.82281 9.77617 8.57711V11.0001H6.98535V14.1824H9.77617V21.8673C10.3369 21.9576 10.9093 22.0001 11.4941 22.0001C12.0789 22.0001 12.6512 21.952 13.212 21.8673V14.1824H15.7793Z" fill="white"/>
</svg>
