<svg width="22" height="22" viewBox="0 0 22 22" fill="none" xmlns="http://www.w3.org/2000/svg">
<g clip-path="url(#clip0_144_157)">
<path d="M21.367 11.23C21.367 10.3777 21.2964 9.75579 21.1437 9.11084H11.2131V12.9575H17.0421C16.9247 13.9135 16.2901 15.3531 14.8798 16.3205L14.86 16.4493L17.9999 18.833L18.2174 18.8543C20.2152 17.0461 21.367 14.3856 21.367 11.23Z" fill="#4285F4"/>
<path d="M11.2121 21.3652C14.0679 21.3652 16.4653 20.4438 18.2164 18.8545L14.8788 16.3206C13.9856 16.9311 12.7869 17.3572 11.2121 17.3572C8.41516 17.3572 6.04125 15.549 5.19502 13.0498L5.07098 13.0601L1.80612 15.5363L1.76343 15.6527C3.50272 19.0387 7.07536 21.3652 11.2121 21.3652Z" fill="#34A853"/>
<path d="M5.19552 13.0498C4.97223 12.4049 4.84301 11.7138 4.84301 10.9998C4.84301 10.2856 4.97224 9.59465 5.18377 8.9497L5.17786 8.81234L1.87208 6.29639L1.76392 6.3468C1.04707 7.75191 0.635742 9.32978 0.635742 10.9998C0.635742 12.6697 1.04707 14.2475 1.76392 15.6526L5.19552 13.0498Z" fill="#FBBC05"/>
<path d="M11.2122 4.64269C13.1983 4.64269 14.538 5.48343 15.3019 6.18602L18.287 3.32977C16.4537 1.65979 14.0679 0.634766 11.2122 0.634766C7.07539 0.634766 3.50273 2.9612 1.76343 6.3472L5.18329 8.9501C6.04128 6.45089 8.41519 4.64269 11.2122 4.64269Z" fill="#EB4335"/>
</g>
<defs>
<clipPath id="clip0_144_157">
<rect width="22" height="22" fill="white"/>
</clipPath>
</defs>
</svg>
