<svg width="26" height="23" viewBox="0 0 26 23" fill="none" xmlns="http://www.w3.org/2000/svg">
<path fill-rule="evenodd" clip-rule="evenodd" d="M19.55 2.38044H5.95C3.60279 2.38044 1.7 4.30374 1.7 6.67625V16.9862C1.7 19.3587 3.60279 21.282 5.95 21.282H19.55C21.8972 21.282 23.8 19.3587 23.8 16.9862V6.67625C23.8 4.30374 21.8972 2.38044 19.55 2.38044ZM5.95 0.662109C2.66391 0.662109 0 3.35473 0 6.67625V16.9862C0 20.3077 2.66391 23.0004 5.95 23.0004H19.55C22.8361 23.0004 25.5 20.3077 25.5 16.9862V6.67625C25.5 3.35473 22.8361 0.662109 19.55 0.662109H5.95Z" fill="#404649"/>
<path fill-rule="evenodd" clip-rule="evenodd" d="M4.29686 5.43839C4.60737 5.05026 5.17373 4.98733 5.56187 5.29784L12.4996 10.8481L19.4374 5.29784C19.8256 4.98733 20.3919 5.05026 20.7024 5.43839C21.0129 5.82653 20.95 6.39289 20.5619 6.7034L13.0619 12.7034C12.7332 12.9664 12.2661 12.9664 11.9374 12.7034L4.43742 6.7034C4.04928 6.39289 3.98635 5.82653 4.29686 5.43839Z" fill="#EA515E"/>
</svg>
