<svg width="25" height="25" viewBox="0 0 25 25" fill="none" xmlns="http://www.w3.org/2000/svg">
<path fill-rule="evenodd" clip-rule="evenodd" d="M20.8514 5.83136C21.8344 5.83136 22.6312 5.03455 22.6312 4.05163C22.6312 3.06872 21.8344 2.27191 20.8514 2.27191C19.8685 2.27191 19.0717 3.06872 19.0717 4.05163C19.0717 5.03455 19.8685 5.83136 20.8514 5.83136ZM20.8514 7.61108C22.8173 7.61108 24.4109 6.01746 24.4109 4.05163C24.4109 2.08581 22.8173 0.492188 20.8514 0.492188C18.8856 0.492188 17.292 2.08581 17.292 4.05163C17.292 6.01746 18.8856 7.61108 20.8514 7.61108Z" fill="#EA515E"/>
<path fill-rule="evenodd" clip-rule="evenodd" d="M6.24157 2.9304C5.91429 2.38956 5.17953 2.30295 4.74067 2.75348L2.73688 4.81055C2.1807 5.38058 1.66004 6.66257 2.07481 8.6513C2.48789 10.6319 3.83214 13.2718 6.93665 16.3523C8.84426 18.2452 11.4066 20.2632 13.8712 21.4652C16.4002 22.6986 18.4179 22.8871 19.661 21.9191L21.7868 19.8721C22.2159 19.4589 22.1851 18.7518 21.7218 18.3792L18.0876 15.457C17.7035 15.1482 17.1543 15.1825 16.8098 15.5368L15.5974 16.7838C14.7601 17.645 13.4134 17.9487 12.294 17.2573C10.7517 16.3047 8.62779 14.6375 7.13253 12.3615C6.37329 11.206 6.67382 9.76463 7.53067 8.88666L8.42097 7.97441C8.73669 7.6509 8.79358 7.14765 8.55834 6.75892L6.24157 2.9304ZM3.3765 1.36172C4.69308 0.0101347 6.89736 0.269974 7.8792 1.8925L10.196 5.72101C10.9016 6.8872 10.7311 8.39695 9.78384 9.36748L8.89356 10.2797C8.57968 10.6014 8.56594 11.0103 8.73105 11.2616C10.0172 13.2193 11.8916 14.7063 13.2893 15.5695C13.5483 15.7295 13.9337 15.7 14.232 15.3933L15.4444 14.1464C16.4779 13.0833 18.1254 12.9804 19.2777 13.9069L22.9119 16.8292C24.3018 17.9467 24.3941 20.0682 23.1067 21.3078L20.9157 23.4177L20.8817 23.445C18.6888 25.206 15.6659 24.5241 13.0426 23.2448C10.3335 21.9236 7.60199 19.7584 5.59578 17.7676C2.3108 14.508 0.707293 11.5382 0.191007 9.06278C-0.323555 6.59557 0.245264 4.57451 1.37303 3.41846" fill="#404649"/>
</svg>
