<svg width="21" height="25" viewBox="0 0 21 25" fill="none" xmlns="http://www.w3.org/2000/svg">
<path d="M10.4454 25L10.0737 24.8365C9.66 24.6562 0 20.3281 0 12.4906V5.69479C0.000368286 5.0408 0.208723 4.4036 0.595392 3.87393C0.982061 3.34426 1.52733 2.94912 2.15355 2.74479L10.5 0L18.8465 2.74479C19.4727 2.94912 20.0179 3.34426 20.4046 3.87393C20.7913 4.4036 20.9996 5.0408 21 5.69479V12.4906C21 21.425 11.2476 24.7354 10.8318 24.8729L10.4454 25ZM10.5 2.18437L2.8182 4.71146C2.60919 4.77918 2.42715 4.91079 2.29814 5.08742C2.16913 5.26406 2.09977 5.47666 2.1 5.69479V12.4906C2.1 18.2135 8.862 21.926 10.5494 22.7625C12.2336 22.0906 18.9 19.0146 18.9 12.4906V5.69479C18.9002 5.47666 18.8309 5.26406 18.7019 5.08742C18.5729 4.91079 18.3908 4.77918 18.1818 4.71146L10.5 2.18437Z" fill="#404649"/>
<path d="M9.56644 15.1392H9.53179C9.26603 15.1352 9.00385 15.0777 8.76111 14.9703C8.51837 14.8628 8.30012 14.7077 8.11954 14.5142L5.69824 12.0142L7.21129 10.5746L9.56749 13.0121L15.0075 7.61523L16.4922 9.08815L10.9682 14.5684C10.7842 14.7507 10.5656 14.8951 10.325 14.9931C10.0843 15.0911 9.82653 15.1407 9.56644 15.1392Z" fill="#EA515E"/>
</svg>
