<svg viewBox="0 0 20 20" fill="none" xmlns="http://www.w3.org/2000/svg">
<path d="M15.8341 13.3329L20.0011 13.3329L20.0011 14.9997L15.8341 14.9997C15.6131 14.9997 15.4011 15.0875 15.2448 15.2438C15.0886 15.4 15.0008 15.612 15.0008 15.833L15.0008 20L13.334 20L13.334 15.833C13.334 15.17 13.5974 14.534 14.0663 14.0652C14.5351 13.5963 15.1711 13.3329 15.8341 13.3329Z" fill="currentColor"/>
<path d="M4.99972 -0.000131753L6.6665 -0.000131607L6.6665 4.16682C6.6665 4.82991 6.40309 5.46584 5.93422 5.93471C5.46535 6.40358 4.82942 6.66699 4.16633 6.66699L-0.000619888 6.66699L-0.000619743 5.00021L4.16633 5.00021C4.38736 5.00021 4.59934 4.91241 4.75563 4.75612C4.91192 4.59983 4.99972 4.38785 4.99972 4.16682L4.99972 -0.000131753Z" fill="currentColor"/>
<path d="M-0.000497235 13.3329L4.16646 13.3329C4.82954 13.3329 5.46547 13.5963 5.93434 14.0652C6.40322 14.534 6.66663 15.17 6.66663 15.833L6.66663 20L4.99985 20L4.99985 15.833C4.99985 15.612 4.91204 15.4 4.75575 15.2438C4.59946 15.0875 4.38748 14.9997 4.16645 14.9997L-0.000497381 14.9997L-0.000497235 13.3329Z" fill="currentColor"/>
<path d="M13.3339 -0.00013219L15.0006 -0.000132044L15.0006 4.16682C15.0006 4.38785 15.0884 4.59983 15.2447 4.75612C15.401 4.91241 15.613 5.00021 15.834 5.00021L20.001 5.00021L20.001 6.66699L15.834 6.66699C15.1709 6.66699 14.535 6.40358 14.0661 5.93471C13.5973 5.46584 13.3339 4.82991 13.3339 4.16682L13.3339 -0.00013219Z" fill="currentColor"/>
</svg>
