<svg width="20" height="20" viewBox="0 0 20 20" fill="none" xmlns="http://www.w3.org/2000/svg">
<path id="Union" fill-rule="evenodd" clip-rule="evenodd" d="M18.4614 10.051C18.4579 10.6461 18.3929 11.2266 18.2726 11.7865C18.0664 12.1004 17.7112 12.3077 17.3075 12.3077C16.6703 12.3077 16.1537 11.7911 16.1537 11.1538V9.61535C16.1537 8.9781 16.6703 8.46151 17.3075 8.46151C17.8691 8.46151 18.3369 8.86263 18.4402 9.39396C18.4531 9.57741 18.4603 9.76247 18.4614 9.94896V10.051ZM17.9109 6.99091C17.7169 6.94651 17.515 6.92305 17.3075 6.92305C15.8206 6.92305 14.6152 8.12843 14.6152 9.61535V11.1538C14.6152 12.6407 15.8206 13.8461 17.3075 13.8461C17.3873 13.8461 17.4662 13.8427 17.5442 13.8359C16.1455 16.5812 13.2923 18.4615 10 18.4615V20C14.7165 20 18.6703 16.7348 19.7243 12.3416C19.9008 11.9833 19.9998 11.5802 19.9998 11.1538V10.0555L20 10L19.9998 9.94452V9.61535C19.9998 9.47624 19.9893 9.33958 19.969 9.20615C19.5643 4.05442 15.2557 0 10 0C4.74504 0 0.436787 4.05336 0.0312088 9.20412C0.010659 9.33819 0 9.47553 0 9.61535V10V11.1538C0 12.6407 1.20539 13.8461 2.69231 13.8461C4.17923 13.8461 5.38462 12.6407 5.38462 11.1538V9.61535C5.38462 8.12843 4.17923 6.92305 2.69231 6.92305C2.48495 6.92305 2.28306 6.94649 2.08916 6.99087C3.30232 3.80333 6.38667 1.53846 10 1.53846C13.6133 1.53846 16.6977 3.80335 17.9109 6.99091ZM1.53846 11.1538V10.7691H1.57295C1.55012 10.5158 1.53846 10.2593 1.53846 10C1.53846 9.79581 1.54569 9.59331 1.55992 9.39275C1.66365 8.86201 2.13121 8.46151 2.69231 8.46151C3.32956 8.46151 3.84615 8.9781 3.84615 9.61535V11.1538C3.84615 11.7911 3.32956 12.3077 2.69231 12.3077C2.05506 12.3077 1.53846 11.7911 1.53846 11.1538ZM7.69228 10.7693C8.11711 10.7693 8.46151 10.4249 8.46151 10.0001C8.46151 9.57526 8.11711 9.23086 7.69228 9.23086C7.26744 9.23086 6.92305 9.57526 6.92305 10.0001C6.92305 10.4249 7.26744 10.7693 7.69228 10.7693ZM10.7693 10.0001C10.7693 10.4249 10.4249 10.7693 10.0001 10.7693C9.57526 10.7693 9.23086 10.4249 9.23086 10.0001C9.23086 9.57526 9.57526 9.23086 10.0001 9.23086C10.4249 9.23086 10.7693 9.57526 10.7693 10.0001ZM12.3075 10.7693C12.7323 10.7693 13.0767 10.4249 13.0767 10.0001C13.0767 9.57526 12.7323 9.23086 12.3075 9.23086C11.8827 9.23086 11.5383 9.57526 11.5383 10.0001C11.5383 10.4249 11.8827 10.7693 12.3075 10.7693Z" fill="currentColor"/>
</svg>
