<svg width="16" height="18" viewBox="0 0 16 18" fill="none" xmlns="http://www.w3.org/2000/svg">
<path d="M15.8002 2.88195H11.9002V1.44195C11.9002 1.06004 11.7358 0.693772 11.4433 0.423719C11.1507 0.153667 10.7539 0.00195313 10.3402 0.00195312L5.6602 0.00195313C5.24646 0.00195313 4.84967 0.153667 4.55711 0.423719C4.26455 0.693772 4.1002 1.06004 4.1002 1.44195V2.88195H0.200195V4.32195H1.7602V15.122C1.7602 15.6948 2.00673 16.2442 2.44557 16.6493C2.8844 17.0544 3.47959 17.282 4.1002 17.282H11.9002C12.5208 17.282 13.116 17.0544 13.5548 16.6493C13.9937 16.2442 14.2402 15.6948 14.2402 15.122V4.32195H15.8002V2.88195ZM5.6602 1.44195H10.3402V2.88195H5.6602V1.44195ZM12.6802 15.122C12.6802 15.3129 12.598 15.496 12.4517 15.6311C12.3055 15.7661 12.1071 15.842 11.9002 15.842H4.1002C3.89333 15.842 3.69493 15.7661 3.54865 15.6311C3.40237 15.496 3.3202 15.3129 3.3202 15.122V4.32195H12.6802V15.122Z" fill="currentColor"/>
<path d="M7.22064 7.20215H5.66064V12.9621H7.22064V7.20215Z" fill="currentColor"/>
<path d="M10.34 7.20215H8.78003V12.9621H10.34V7.20215Z" fill="currentColor"/>
</svg>
