<svg width="9" height="11" viewBox="0 0 9 11" fill="none" xmlns="http://www.w3.org/2000/svg">
<path d="M1.4414 10.0624L1 3H8L7.5586 10.0624C7.52566 10.5894 7.08861 11 6.56055 11H2.43945C1.91139 11 1.47434 10.5894 1.4414 10.0624Z" fill="currentColor"/>
<path d="M0 2C0 1.72386 0.223858 1.5 0.5 1.5H8.5C8.77614 1.5 9 1.72386 9 2V2C9 2.27614 8.77614 2.5 8.5 2.5H0.5C0.223858 2.5 0 2.27614 0 2V2Z" fill="currentColor"/>
<path d="M3 1.5C3 0.947715 3.44772 0.5 4 0.5H5C5.55228 0.5 6 0.947715 6 1.5V2H3V1.5Z" fill="currentColor"/>
</svg>
