<svg width="29" height="25" viewBox="0 0 29 25" fill="none" xmlns="http://www.w3.org/2000/svg">
<path fill-rule="evenodd" clip-rule="evenodd" d="M7 1.7H25C26.2703 1.7 27.3 2.72974 27.3 4V21C27.3 22.2703 26.2703 23.3 25 23.3H7C5.72974 23.3 4.7 22.2703 4.7 21V18H3V21C3 23.2091 4.79086 25 7 25H25C27.2091 25 29 23.2091 29 21V4C29 1.79086 27.2091 0 25 0H7C4.79086 0 3 1.79086 3 4V6H4.7V4C4.7 2.72975 5.72975 1.7 7 1.7Z" fill="currentColor"/>
<rect x="0.85" y="8.85" width="10.3" height="6.3" rx="2.15" stroke="#EA515E" stroke-width="1.7"/>
</svg>
