<svg width="150" height="50" viewBox="0 0 150 50" fill="none" xmlns="http://www.w3.org/2000/svg">
<path d="M65.7344 19.9936C65.5338 19.6965 65.3751 19.3993 65.2631 19.1965C65.3098 19.5833 65.3098 19.904 65.3098 20.22V32.8793H64.3159V16.2109H64.3392L71.3244 26.5261L78.3096 16.2109H78.3329V32.8793H77.3437V20.22C77.3437 19.8993 77.3437 19.5833 77.3904 19.1965C77.2784 19.3993 77.1197 19.6965 76.9191 19.9936L71.3337 28.2146L65.7484 19.9936H65.7344ZM83.6616 16.4892L89.0696 25.2573L94.4776 16.4892H95.6022L89.5642 26.2336V32.884H88.575V26.2336L82.5371 16.4892H83.6616Z" fill="#EA515E"/>
<path d="M111.597 32.8839V30.469H104.999V16.4891H102.162V32.8839H111.602H111.597ZM119.17 32.8839V16.4891H116.333V32.8839H119.17ZM134.349 18.904V16.4891H124.662V32.8839H127.499V25.9411H133.267V23.5498H127.499V18.904H134.349ZM149.206 32.8839V30.469H141.502V25.7572H147.741V23.413H141.502V18.904H148.87V16.4891H138.665V32.8839H149.206Z" fill="#EA515E"/>
<path d="M49.316 8.51843L31.3281 16.2848L23.6448 8.51843H49.316Z" fill="#EA515E"/>
<path d="M31.3124 31.8206L23.6291 24.051H8.26245L15.9458 31.8206H31.3124Z" fill="#EA515E"/>
<path d="M31.3275 16.2848L31.312 31.8207L23.6287 24.0512L23.6442 8.51843L31.3275 16.2848Z" fill="#EA515E"/>
<path d="M8.26245 24.051V49.9998L15.9458 31.8206L8.26245 24.051Z" fill="#EA515E"/>
<path d="M6.04889 37.6928C3.07893 33.8662 1.30131 29.0547 1.30131 23.8247C1.30131 11.4136 11.2915 1.31538 23.5698 1.31538C28.8373 1.31538 33.6814 3.1783 37.5013 6.28108H39.4999C35.3003 2.3853 29.7059 0 23.5698 0C10.5754 0 0 10.6898 0 23.8247C0 29.939 2.29129 35.5183 6.04889 39.7413V37.6928Z" fill="#EA515E"/>
<path d="M43.36 13.522C44.9415 16.6122 45.8412 20.1146 45.8412 23.8248C45.8412 36.2359 35.8511 46.334 23.5727 46.334C19.868 46.334 16.3751 45.4089 13.2961 43.7851L12.7825 44.9966C16.0171 46.6865 19.6844 47.6494 23.5696 47.6494C36.5671 47.6494 47.1394 36.9596 47.1394 23.8248C47.1394 19.929 46.2024 16.2535 44.5586 13.0028L43.36 13.522Z" fill="#EA515E"/>
</svg>
