<svg width="50" height="50" viewBox="0 0 50 50" fill="none" xmlns="http://www.w3.org/2000/svg">
<path d="M49.316 8.51831L31.3281 16.2847L23.6448 8.51831H49.316Z" fill="#EA515E"/>
<path d="M31.3123 31.8206L23.6289 24.051H8.26233L15.9456 31.8206H31.3123Z" fill="#EA515E"/>
<path d="M31.3275 16.2847L31.312 31.8206L23.6287 24.0511L23.6442 8.51831L31.3275 16.2847Z" fill="#EA515E"/>
<path d="M8.26233 24.051V49.9998L15.9456 31.8206L8.26233 24.051Z" fill="#EA515E"/>
<path d="M6.04889 37.6928C3.07893 33.8662 1.30131 29.0547 1.30131 23.8247C1.30131 11.4136 11.2915 1.31538 23.5698 1.31538C28.8373 1.31538 33.6814 3.1783 37.5013 6.28108H39.4999C35.3003 2.3853 29.7059 0 23.5698 0C10.5754 0 0 10.6898 0 23.8247C0 29.939 2.29129 35.5183 6.04889 39.7413V37.6928Z" fill="#EA515E"/>
<path d="M43.3602 13.5222C44.9417 16.6123 45.8414 20.1148 45.8414 23.8249C45.8414 36.236 35.8512 46.3342 23.5728 46.3342C19.8682 46.3342 16.3752 45.409 13.2963 43.7852L12.7826 44.9968C16.0172 46.6866 19.6845 47.6495 23.5697 47.6495C36.5672 47.6495 47.1396 36.9598 47.1396 23.8249C47.1396 19.9291 46.2025 16.2536 44.5587 13.0029L43.3602 13.5222Z" fill="#EA515E"/>
</svg>
