<svg width="86" height="17" viewBox="0 0 86 17" fill="none" xmlns="http://www.w3.org/2000/svg">
<path d="M1.73454 3.99362C1.53389 3.69647 1.37525 3.39934 1.26326 3.19653C1.30992 3.58328 1.30992 3.90401 1.30992 4.22002V16.8793H0.31604V0.210938H0.339371L7.32454 10.5261L14.3097 0.210938H14.333V16.8793H13.3438V4.22002C13.3438 3.8993 13.3438 3.58328 13.3905 3.19653C13.2785 3.39934 13.1198 3.69647 12.9192 3.99362L7.33387 12.2146L1.74854 3.99362H1.73454ZM19.6617 0.489219L25.0698 9.25731L30.4778 0.489219H31.6023L25.5644 10.2336V16.884H24.5751V10.2336L18.5372 0.489219H19.6617Z" fill="#EA515E"/>
<path d="M47.5975 16.8838V14.4689H40.9996V0.489014H38.1626V16.8838H47.6021H47.5975ZM55.1706 16.8838V0.489014H52.3336V16.8838H55.1706ZM70.3494 2.90389V0.489014H60.6626V16.8838H63.4996V9.941H69.2669V7.5497H63.4996V2.90389H70.3494ZM85.2063 16.8838V14.4689H77.5026V9.75705H83.7412V7.41293H77.5026V2.90389H84.8704V0.489014H74.6656V16.8838H85.2063Z" fill="#EA515E"/>
</svg>
