<svg
	width="22"
	height="21"
	viewBox="0 0 22 21"
	fill="none"
	xmlns="http://www.w3.org/2000/svg"
>
	<path
		fill-rule="evenodd"
		clip-rule="evenodd"
		d="M5.65352 0.970238C5.65352 0.641497 5.9699 0.375 6.36018 0.375C6.75046 0.375 7.06685 0.641497 7.06685 0.970238V1.80352H14.1332V0.970238C14.1332 0.641497 14.4496 0.375 14.8399 0.375C15.2302 0.375 15.5465 0.641497 15.5465 0.970238V1.80352H16.2533C18.9853 1.80352 21.2 4.04209 21.2 6.80351V15.3749C21.2 18.1364 18.9853 20.3749 16.2533 20.3749H4.94667C2.2147 20.3749 0 18.1364 0 15.3749V6.80351C0 4.04209 2.2147 1.80352 4.94667 1.80352H5.65352V0.970238ZM14.1332 3.23209V3.35119C14.1332 3.67993 14.4496 3.94643 14.8399 3.94643C15.2302 3.94643 15.5465 3.67993 15.5465 3.35119V3.23209H16.2533C18.2047 3.23209 19.7867 4.83107 19.7867 6.80351V15.3749C19.7867 17.3474 18.2047 18.9464 16.2533 18.9464H4.94667C2.99526 18.9464 1.41333 17.3474 1.41333 15.3749V6.80351C1.41333 4.83107 2.99526 3.23209 4.94667 3.23209H5.65352V3.35119C5.65352 3.67993 5.9699 3.94643 6.36018 3.94643C6.75046 3.94643 7.06685 3.67993 7.06685 3.35119V3.23209H14.1332ZM7.06646 8.94651C7.06646 9.341 6.75007 9.6608 6.35979 9.6608C5.96951 9.6608 5.65312 9.341 5.65312 8.94651C5.65312 8.55202 5.96951 8.23223 6.35979 8.23223C6.75007 8.23223 7.06646 8.55202 7.06646 8.94651ZM6.35979 13.9463C6.75007 13.9463 7.06646 13.6265 7.06646 13.2321C7.06646 12.8376 6.75007 12.5178 6.35979 12.5178C5.96951 12.5178 5.65312 12.8376 5.65312 13.2321C5.65312 13.6265 5.96951 13.9463 6.35979 13.9463ZM11.3067 8.94651C11.3067 9.341 10.9903 9.6608 10.6 9.6608C10.2097 9.6608 9.89336 9.341 9.89336 8.94651C9.89336 8.55202 10.2097 8.23223 10.6 8.23223C10.9903 8.23223 11.3067 8.55202 11.3067 8.94651ZM10.6 13.9463C10.9903 13.9463 11.3067 13.6265 11.3067 13.2321C11.3067 12.8376 10.9903 12.5178 10.6 12.5178C10.2097 12.5178 9.89336 12.8376 9.89336 13.2321C9.89336 13.6265 10.2097 13.9463 10.6 13.9463ZM15.5469 8.94651C15.5469 9.341 15.2305 9.6608 14.8403 9.6608C14.45 9.6608 14.1336 9.341 14.1336 8.94651C14.1336 8.55202 14.45 8.23223 14.8403 8.23223C15.2305 8.23223 15.5469 8.55202 15.5469 8.94651ZM14.8403 13.9463C15.2305 13.9463 15.5469 13.6265 15.5469 13.2321C15.5469 12.8376 15.2305 12.5178 14.8403 12.5178C14.45 12.5178 14.1336 12.8376 14.1336 13.2321C14.1336 13.6265 14.45 13.9463 14.8403 13.9463Z"
		fill="currentColor"
	/>
</svg>
