<svg width="14" height="14" viewBox="0 0 14 14" fill="none" xmlns="http://www.w3.org/2000/svg">
<path d="M10.4626 1.44746L10.4627 1.44754L10.4717 1.43817C10.5705 1.33591 10.6886 1.25435 10.8192 1.19825C10.9498 1.14214 11.0903 1.1126 11.2325 1.11137C11.3746 1.11013 11.5156 1.13722 11.6472 1.19105C11.7787 1.24488 11.8983 1.32438 11.9988 1.4249C12.0993 1.52542 12.1788 1.64495 12.2326 1.77652C12.2865 1.9081 12.3136 2.04907 12.3123 2.19122C12.3111 2.33337 12.2816 2.47386 12.2255 2.60447C12.1693 2.73509 12.0878 2.85322 11.9855 2.95198L11.9855 2.9519L11.9762 2.96112L11.7847 3.15265L10.271 1.639L10.4626 1.44746Z" stroke="currentColor" stroke-width="1.5"/>
<path d="M7.92324 3.98671L9.43785 5.50025L2.55982 12.3775H1.04614V10.8638L7.92324 3.98671Z" stroke="currentColor" stroke-width="1.5"/>
</svg>
