<svg width="18" height="20" viewBox="0 0 18 20" fill="none" xmlns="http://www.w3.org/2000/svg">
<g id="Group 5457">
<path id="Vector 36 (Stroke)" fill-rule="evenodd" clip-rule="evenodd" d="M3.6 18.5642H14.4C15.5929 18.5642 16.56 17.6 16.56 16.4106V9.11418C16.56 8.53651 16.3272 7.98306 15.914 7.57815L10.2759 2.0534C9.41323 1.20806 8.02255 1.23374 7.19185 2.11035L2.02996 7.55753C1.65109 7.95735 1.44 8.48656 1.44 9.03661V16.4106C1.44 17.6 2.40706 18.5642 3.6 18.5642ZM3.6 20H14.4C16.3882 20 18 18.393 18 16.4106V9.11418C18 8.1514 17.6121 7.22898 16.9234 6.55412L11.2853 1.02938C9.84746 -0.379521 7.52965 -0.336718 6.14516 1.1243L0.983273 6.57148C0.351811 7.23784 0 8.11985 0 9.03661V16.4106C0 18.393 1.61178 20 3.6 20Z" fill="currentColor"/>
<path id="Rectangle 1591" d="M5.03984 14.9747C5.03984 14.5782 5.3622 14.2568 5.75984 14.2568H12.2398C12.6375 14.2568 12.9598 14.5782 12.9598 14.9747C12.9598 15.3712 12.6375 15.6926 12.2398 15.6926H5.75984C5.3622 15.6926 5.03984 15.3712 5.03984 14.9747Z" fill="currentColor"/>
</g>
</svg>
