<svg width="20" height="20" viewBox="0 0 20 20" fill="none" xmlns="http://www.w3.org/2000/svg">
<path id="Union" fill-rule="evenodd" clip-rule="evenodd" d="M9.66791 18.6402C14.4397 18.6402 18.3079 14.772 18.3079 10.0002C18.3079 5.2285 14.4397 1.36024 9.66791 1.36024C6.50303 1.36024 3.73559 3.06192 2.23064 5.60024H0.68543C2.31319 2.28347 5.72392 0.000244141 9.66791 0.000244141C15.1908 0.000244141 19.6679 4.4774 19.6679 10.0002C19.6679 15.5231 15.1908 20.0002 9.66791 20.0002C5.56727 20.0002 2.04311 17.5321 0.5 14.0002H2.00762C3.4507 16.7582 6.33952 18.6402 9.66791 18.6402ZM10.1487 6.881C10.4143 6.61544 10.4143 6.18489 10.1487 5.91933C9.88319 5.65378 9.45264 5.65378 9.18708 5.91933L5.10625 10.0002L9.18708 14.081C9.45264 14.3466 9.88319 14.3466 10.1487 14.081C10.4143 13.8154 10.4143 13.3849 10.1487 13.1193L7.70958 10.6802H13.2679C13.6435 10.6802 13.9479 10.3757 13.9479 10.0002C13.9479 9.62461 13.6435 9.32017 13.2679 9.32017H7.70958L10.1487 6.881Z" fill="currentColor"/>
</svg>
