<svg viewBox="0 0 25 25" fill="none" xmlns="http://www.w3.org/2000/svg">
<circle cx="11.621" cy="5.49986" r="4.49986" stroke="#404649" stroke-width="2"/>
<mask id="path-2-inside-1_41_6198" fill="white">
<path fill-rule="evenodd" clip-rule="evenodd" d="M21.8732 21.5211C21.9697 21.0955 22.02 20.6585 22.02 20.213C22.02 15.7995 17.0906 12.2217 11.01 12.2217C4.92933 12.2217 0 15.7995 0 20.213C0 20.6585 0.0502277 21.0955 0.146797 21.5211C0.617205 23.2069 2.16417 24.4436 4 24.4436H18.02C19.8558 24.4436 21.4028 23.2069 21.8732 21.5211Z"/>
</mask>
<path d="M21.8732 21.5211L23.7996 22.0587L23.8127 22.0114L23.8236 21.9636L21.8732 21.5211ZM0.146797 21.5211L-1.80364 21.9636L-1.79279 22.0114L-1.77961 22.0587L0.146797 21.5211ZM20.02 20.213C20.02 20.5072 19.9869 20.7959 19.9227 21.0786L23.8236 21.9636C23.9526 21.3951 24.02 20.8097 24.02 20.213H20.02ZM11.01 14.2217C13.6744 14.2217 16.0051 15.0084 17.6204 16.1809C19.2379 17.3549 20.02 18.8055 20.02 20.213H24.02C24.02 17.2069 22.3374 14.662 19.97 12.9437C17.6005 11.2238 14.4262 10.2217 11.01 10.2217V14.2217ZM2 20.213C2 18.8055 2.78208 17.3549 4.39955 16.1809C6.01488 15.0084 8.34555 14.2217 11.01 14.2217V10.2217C7.59376 10.2217 4.41944 11.2238 2.04994 12.9437C-0.317411 14.662 -2 17.2069 -2 20.213H2ZM2.09723 21.0786C2.03308 20.7959 2 20.5073 2 20.213H-2C-2 20.8097 -1.93263 21.3951 -1.80364 21.9636L2.09723 21.0786ZM4 22.4436C3.08495 22.4436 2.30867 21.8274 2.0732 20.9836L-1.77961 22.0587C-1.07427 24.5864 1.24339 26.4436 4 26.4436V22.4436ZM18.02 22.4436H4V26.4436H18.02V22.4436ZM19.9468 20.9836C19.7113 21.8274 18.935 22.4436 18.02 22.4436V26.4436C20.7766 26.4436 23.0942 24.5864 23.7996 22.0587L19.9468 20.9836Z" fill="#404649" mask="url(#path-2-inside-1_41_6198)"/>
<path d="M20 10L24 6M20 6L24 10" stroke="#EA515E" stroke-width="1.7" stroke-linecap="round"/>
</svg>
