<svg viewBox="0 0 21 14" fill="none" xmlns="http://www.w3.org/2000/svg">
<path d="M4.375 14H11.375C13.7874 14 15.75 12.0374 15.75 9.625V4.375C15.75 1.96263 13.7874 0 11.375 0H4.375C1.96263 0 0 1.96263 0 4.375V9.625C0 12.0374 1.96263 14 4.375 14ZM21 3.77387V10.178C21 10.8404 20.6325 11.4354 20.0401 11.7311C19.7925 11.8545 19.5265 11.9158 19.2622 11.9158C18.8939 11.9158 18.5299 11.7976 18.2219 11.5666C18.1895 11.5421 17.5 10.8579 17.5 10.8579V3.101C17.5 3.101 18.1877 2.41062 18.2219 2.38525C18.7504 1.988 19.446 1.92413 20.0401 2.22075C20.6343 2.51738 21 3.1115 21 3.77387Z" fill="currentColor" />
</svg>
